{"title":"IMAX.Mission.To.Mir.1997.720p.BRRip.Xvid.AC3.DiVERSiTY","uid":6968663,"size":1341380043,"categoryP":"video","categoryS":"hd___movies","magnet":"?xt=urn:btih:01da37225df1d8585a9ae2c2f14371bf01b0aa61&amp;dn=IMAX.Mission.To.Mir.1997.720p.BRRip.Xvid.AC3.DiVERSiTY&amp;tr=udp%3A%2F%2Ftracker.openbittorrent.com%3A80&amp;tr=udp%3A%2F%2Fopen.demonii.com%3A1337&amp;tr=udp%3A%2F%2Ftracker.coppersurfer.tk%3A6969&amp;tr=udp%3A%2F%2Fexodus.desync.com%3A6969","seeders":3,"leechers":0,"uploader":"TvTeam","files":4,"time":1327006792,"description":". \n &lt;a href=&quot;\nhttp://www.torrenting.com&quot; rel=&quot;nofollow&quot; target=&quot;_NEW&quot;&gt;\nhttp://www.torrenting.com&lt;/a&gt;          :     Once &amp; For all ;)\n\n\n               www . Torrenting . Com \n\n(((((((((((((= Enjoy No RAR releases =))))))))))))))))))))\n\n\n...................................NFO:....................................\n\n.                                                                \n @@@@@@@   @@@  @@@  @@@  @@@@@@@@  @@@@@@@   @@@@@@    @@@  @@@@@@@  @@@ @@@ \n @@@@@@@@  @@@  @@@  @@@  @@@@@@@@  @@@@@@@@  @@@@@@@   @@@  @@@@@@@  @@@ @@@ \n @@!  @@@  @@!  @@!  @@@  @@!       @@!  @@@  !@@       @@!    @@!    @@! !@@ \n !@!  @!@  !@!  !@!  @!@  !@!       !@!  @!@  !@!       !@!    !@!    !@! @!! \n @!@  !@!  !!@  @!@  !@!  @!!!:!    @!@!!@!   !!@@!!    !!@    @!!     !@!@!  \n !@!  !!!  !!!  !@!  !!!  !!!!!:    !!@!@!     !!@!!!   !!!    !!!      @!!!  \n !!:  !!!  !!:  :!:  !!:  !!:       !!: :!!        !:!  !!:    !!:      !!:   \n :!:  !:!  :!:   ::!!:!   :!:       :!:  !:!      !:!   :!:    :!:      :!:   \n :::: ::   ::    ::::     :: ::::   ::   :::  :::: ::    ::     ::       ::   \n :: :  :   :       :      : :: ::    :   : :  :: : :    :       :        :       \n\n\n\nGeneral\n\nComplete name                    : IMAX.Mission.To.Mir.1997.720p.BRRip.Xvid.AC3.DiVERSiTY\nFormat                           : AVI\nFormat/Info                      : Audio Video Interleave\nFile size                        : 1.25 GiB\nDuration                         : 40mn 2s\nOverall bit rate                 : 4 466 Kbps    \nEncoded by                       : Hibees\n \nSource                           : IMAX.Mission.To.Mir.1997.720p.BluRay.x264-CiNEFiLE    \n    &lt;a href=&quot;\nhttp://www.imdb.com/title/tt0119682/&quot; rel=&quot;nofollow&quot; target=&quot;_NEW&quot;&gt;\nhttp://www.imdb.com/title/tt0119682/&lt;/a&gt;\n\n\n\nVideo\n\nFormat                           : MPEG-4 Visual\nFormat profile                   : Streaming Video@L1\nFormat settings, BVOP            : Yes\nFormat settings, QPel            : No\nFormat settings, GMC             : No warppoints\nFormat settings, Matrix          : Default\nCodec ID                         : XVID\nCodec ID/Hint                    : XviD\nDuration                         : 40mn 2s\nBit rate                         : 4 010 Kbps\nWidth                            : 1 104 pixels\nHeight                           : 720 pixels\nDisplay aspect ratio             : 1.533\nFrame rate                       : 23.976 fps\nResolution                       : 24 bits\nColorimetry                      : 4:2:0\nScan type                        : Progressive\nBits/(Pixel*Frame)               : 0.210\nStream size                      : 1.12 GiB (90%)\nWriting library                  : XviD 1.2.1 (UTC 2008-12-04)\n\n\n\nAudio\n\nFormat                           : AC-3\nFormat/Info                      : Audio Coding 3\nCodec ID                         : 2000\nDuration                         : 40mn 2s\nBit rate mode                    : Constant\nBit rate                         : 448 Kbps\nChannel(s)                       : 6 channels\nChannel positions                : Front: L C R, Surround: L R, LFE\nSampling rate                    : 48.0 KHz\nStream size                      : 128 MiB (10%)\nAlignment                        : Aligned on interleaves\nInterleave, duration             : 64 ms (1.53 video frames)\nInterleave, preload duration     : 192 ms\n\n\n\nPlot:\n\nUniting two former rival nations, Mission to Mir is a unique tour\nof the Russian Space Station Mir. Filmed in space by American \nastronauts, the film examines their relationships with Mir's \ncosmonauts as they live, work and entertain in a zero-gravity \nenvironment. Join record-setting space pioneer Shannon W Lucid \nand her colleagues inside their weightless home against a panorama \nof spectacular space scenery. \n\n\nGreets:\n\nTo Everyone who makes p2p possible...... Thanks.","torrent":{"xt":"urn:btih:01da37225df1d8585a9ae2c2f14371bf01b0aa61","amp;dn":"IMAX.Mission.To.Mir.1997.720p.BRRip.Xvid.AC3.DiVERSiTY","amp;tr":["udp%3A%2F%2Ftracker.openbittorrent.com%3A80","udp%3A%2F%2Fopen.demonii.com%3A1337","udp%3A%2F%2Ftracker.coppersurfer.tk%3A6969","udp%3A%2F%2Fexodus.desync.com%3A6969"],"infoHash":"01da37225df1d8585a9ae2c2f14371bf01b0aa61","infoHashBuffer":{"type":"Buffer","data":[1,218,55,34,93,241,216,88,90,154,226,194,241,67,113,191,1,176,170,97]},"announce":[],"urlList":[]}}